<svg xmlns="http://www.w3.org/2000/svg" viewBox="0 0 48 48" fill="none"><path d="M8 18l16-9 16 9v12a4 4 0 01-4 4H12a4 4 0 01-4-4z" stroke="#2563eb" stroke-width="2.5" fill="none"/><path d="M24 9v12M10 16l14 8 14-8" stroke="#2563eb" stroke-width="2" fill="none"/><circle cx="18" cy="22" r="2" fill="#2563eb"/><circle cx="30" cy="22" r="2" fill="#2563eb"/><path d="M20 34V16h8v18a4 4 0 01-8 0z" stroke="#2563eb" stroke-width="2.5" fill="none"/><path d="M28 36h12a4 4 0 010 8H16a4 4 0 010-8h12z" stroke="#2563eb" stroke-width="2.5" fill="none"/></svg>